<svg width="32" height="32" viewBox="0 0 32 32" fill="none" xmlns="http://www.w3.org/2000/svg">
  <defs>
    <linearGradient id="tile" x1="0" y1="0" x2="0" y2="32" gradientUnits="userSpaceOnUse">
      <stop offset="0" stop-color="#0e0e22"/>
      <stop offset="1" stop-color="#070713"/>
    </linearGradient>
    <linearGradient id="mark" x1="8" y1="6" x2="24" y2="26" gradientUnits="userSpaceOnUse">
      <stop offset="0" stop-color="#b69ff8"/>
      <stop offset="0.5" stop-color="#6d3ef1"/>
      <stop offset="1" stop-color="#3b2db0"/>
    </linearGradient>
    <filter id="glow" x="-50%" y="-50%" width="200%" height="200%">
      <feGaussianBlur stdDeviation="1.3"/>
    </filter>
  </defs>

  <!-- dark rounded tile + subtle border -->
  <rect width="32" height="32" rx="7" fill="url(#tile)"/>
  <rect x="0.5" y="0.5" width="31" height="31" rx="6.5" fill="none" stroke="#26264a" stroke-width="1"/>

  <!-- purple glow halo behind the mark -->
  <path d="M22 10 C22 7.5 10 7 10 12 C10 16 22 16 22 20.5 C22 25 10 25 10 22"
        stroke="#6d3ef1" stroke-width="4.5" stroke-linecap="round" stroke-linejoin="round"
        fill="none" opacity="0.55" filter="url(#glow)"/>

  <!-- SagTech "S" monogram, brand gradient -->
  <path d="M22 10 C22 7.5 10 7 10 12 C10 16 22 16 22 20.5 C22 25 10 25 10 22"
        stroke="url(#mark)" stroke-width="4.3" stroke-linecap="round" stroke-linejoin="round"
        fill="none"/>
</svg>
