<svg width="78" height="78" viewBox="0 0 78 78" fill="none" xmlns="http://www.w3.org/2000/svg">
<g filter="url(#filter0_d_965_34537)">
<path opacity="0.35" d="M54 61.0391H24C19.8575 61.0391 16.5 57.6816 16.5 53.5391V26.0391H61.5V53.5391C61.5 57.6816 58.1425 61.0391 54 61.0391Z" fill="white"/>
<path d="M61.5 26.0391H16.5V23.5391C16.5 19.3966 19.8575 16.0391 24 16.0391H54C58.1425 16.0391 61.5 19.3966 61.5 23.5391V26.0391Z" fill="white"/>
<path d="M36.5044 56.0402C36.3019 56.0402 36.0994 56.0177 35.8944 55.9652C34.5544 55.6302 33.7419 54.2727 34.0744 52.9327L39.0744 32.9327C39.4094 31.5927 40.7719 30.7827 42.1069 31.1127C43.4469 31.4477 44.2594 32.8052 43.9269 34.1452L38.9269 54.1452C38.6419 55.2827 37.6244 56.0402 36.5044 56.0402Z" fill="white"/>
<path d="M49.0006 51.0397C48.3606 51.0397 47.7206 50.7947 47.2331 50.3072C46.2556 49.3297 46.2556 47.7497 47.2331 46.7722L50.4656 43.5397L47.2331 40.3072C46.2556 39.3297 46.2556 37.7497 47.2331 36.7722C48.2106 35.7947 49.7906 35.7947 50.7681 36.7722L55.7681 41.7722C56.7456 42.7497 56.7456 44.3297 55.7681 45.3072L50.7681 50.3072C50.2806 50.7947 49.6406 51.0397 49.0006 51.0397Z" fill="white"/>
<path d="M29.0006 51.0397C28.3606 51.0397 27.7206 50.7947 27.2331 50.3072L22.2331 45.3072C21.2556 44.3297 21.2556 42.7497 22.2331 41.7722L27.2331 36.7722C28.2106 35.7947 29.7906 35.7947 30.7681 36.7722C31.7456 37.7497 31.7456 39.3297 30.7681 40.3072L27.5356 43.5397L30.7681 46.7722C31.7456 47.7497 31.7456 49.3297 30.7681 50.3072C30.2806 50.7947 29.6406 51.0397 29.0006 51.0397Z" fill="white"/>
</g>
<defs>
<filter id="filter0_d_965_34537" x="-7" y="-7.46094" width="92" height="92" filterUnits="userSpaceOnUse" color-interpolation-filters="sRGB">
<feFlood flood-opacity="0" result="BackgroundImageFix"/>
<feColorMatrix in="SourceAlpha" type="matrix" values="0 0 0 0 0 0 0 0 0 0 0 0 0 0 0 0 0 0 127 0" result="hardAlpha"/>
<feOffset/>
<feGaussianBlur stdDeviation="8"/>
<feColorMatrix type="matrix" values="0 0 0 0 0.427451 0 0 0 0 0.243137 0 0 0 0 0.945098 0 0 0 0.56 0"/>
<feBlend mode="normal" in2="BackgroundImageFix" result="effect1_dropShadow_965_34537"/>
<feBlend mode="normal" in="SourceGraphic" in2="effect1_dropShadow_965_34537" result="shape"/>
</filter>
</defs>
</svg>
