<svg width="24" height="24" viewBox="0 0 24 24" fill="none" xmlns="http://www.w3.org/2000/svg">
<path opacity="0.35" d="M9 8H5C3.895 8 3 7.105 3 6V4C3 2.895 3.895 2 5 2H9C10.105 2 11 2.895 11 4V6C11 7.105 10.105 8 9 8Z" fill="white"/>
<path opacity="0.35" d="M13 20V18C13 16.895 13.895 16 15 16H19C20.105 16 21 16.895 21 18V20C21 21.105 20.105 22 19 22H15C13.895 22 13 21.105 13 20Z" fill="white"/>
<path opacity="0.35" d="M13 12V10C13 8.895 13.895 8 15 8H19C20.105 8 21 8.895 21 10V12C21 13.105 20.105 14 19 14H15C13.895 14 13 13.105 13 12Z" fill="white"/>
<path d="M13 12V10H9C8.448 10 8 9.552 8 9V8H6V17C6 18.657 7.343 20 9 20H13V18H9C8.448 18 8 17.552 8 17V13C8 12.448 8.448 12 9 12H13Z" fill="white"/>
</svg>
