<svg width="24" height="24" viewBox="0 0 24 24" fill="none" xmlns="http://www.w3.org/2000/svg">
<path opacity="0.35" d="M16.667 15.489C18.683 14.036 20 11.675 20 9C20 4.582 16.418 1 12 1C7.582 1 4 4.582 4 9C4 11.675 5.317 14.036 7.333 15.489L7.976 18H16.024L16.667 15.489Z" fill="white"/>
<path d="M15.5771 19.744L16.0241 18H7.97607L8.42207 19.744C8.76207 21.071 9.95807 22 11.3281 22H12.6711C14.0421 22 15.2381 21.071 15.5771 19.744Z" fill="white"/>
<path d="M21 3C21.5523 3 22 2.55228 22 2C22 1.44772 21.5523 1 21 1C20.4477 1 20 1.44772 20 2C20 2.55228 20.4477 3 21 3Z" fill="white"/>
<path d="M3 3C3.55228 3 4 2.55228 4 2C4 1.44772 3.55228 1 3 1C2.44772 1 2 1.44772 2 2C2 2.55228 2.44772 3 3 3Z" fill="white"/>
<path d="M21 17C21.5523 17 22 16.5523 22 16C22 15.4477 21.5523 15 21 15C20.4477 15 20 15.4477 20 16C20 16.5523 20.4477 17 21 17Z" fill="white"/>
<path d="M3 17C3.55228 17 4 16.5523 4 16C4 15.4477 3.55228 15 3 15C2.44772 15 2 15.4477 2 16C2 16.5523 2.44772 17 3 17Z" fill="white"/>
<path d="M23 10C23.5523 10 24 9.55228 24 9C24 8.44772 23.5523 8 23 8C22.4477 8 22 8.44772 22 9C22 9.55228 22.4477 10 23 10Z" fill="white"/>
<path d="M1 10C1.55228 10 2 9.55228 2 9C2 8.44772 1.55228 8 1 8C0.447715 8 0 8.44772 0 9C0 9.55228 0.447715 10 1 10Z" fill="white"/>
</svg>
