<svg width="24" height="24" viewBox="0 0 24 24" fill="none" xmlns="http://www.w3.org/2000/svg">
<path opacity="0.35" d="M12 20C16.9706 20 21 15.9706 21 11C21 6.02944 16.9706 2 12 2C7.02944 2 3 6.02944 3 11C3 15.9706 7.02944 20 12 20Z" fill="white"/>
<path d="M18 22C18.5523 22 19 21.5523 19 21C19 20.4477 18.5523 20 18 20C17.4477 20 17 20.4477 17 21C17 21.5523 17.4477 22 18 22Z" fill="white"/>
<path d="M18.235 18.668C18.094 18.268 17.716 18 17.292 18H6.70801C6.28401 18 5.90601 18.268 5.76501 18.668L5.03101 20.753L6.00001 22H18L18.969 20.753L18.235 18.668Z" fill="white"/>
<path d="M6 22C6.55228 22 7 21.5523 7 21C7 20.4477 6.55228 20 6 20C5.44772 20 5 20.4477 5 21C5 21.5523 5.44772 22 6 22Z" fill="white"/>
<path d="M9 8C9.55228 8 10 7.55228 10 7C10 6.44772 9.55228 6 9 6C8.44772 6 8 6.44772 8 7C8 7.55228 8.44772 8 9 8Z" fill="white"/>
<path d="M15.5599 6.32018L14.9999 8.00018L13.3199 8.56018C12.8969 8.70118 12.8969 9.29918 13.3199 9.44018L14.9999 10.0002L15.5599 11.6802C15.7009 12.1032 16.2989 12.1032 16.4399 11.6802L16.9999 10.0002L18.6799 9.44018C19.1029 9.29918 19.1029 8.70118 18.6799 8.56018L16.9999 8.00018L16.4399 6.32018C16.2989 5.89718 15.7009 5.89718 15.5599 6.32018Z" fill="white"/>
<path d="M8.13302 11.264L7.66602 12.666L6.26402 13.133C5.91102 13.251 5.91102 13.749 6.26402 13.867L7.66602 14.334L8.13302 15.736C8.25102 16.089 8.74902 16.089 8.86702 15.736L9.33402 14.334L10.736 13.867C11.089 13.749 11.089 13.251 10.736 13.133L9.33402 12.666L8.86702 11.264C8.74902 10.912 8.25102 10.912 8.13302 11.264Z" fill="white"/>
</svg>
