<svg width="24" height="24" viewBox="0 0 24 24" fill="none" xmlns="http://www.w3.org/2000/svg">
<g clip-path="url(#clip0_279_662)">
<path d="M19 14C16.239 14 14 16.239 14 19C14 21.761 16.239 24 19 24C21.761 24 24 21.761 24 19C24 16.239 21.761 14 19 14ZM19.431 22.141V22.543C19.431 22.795 19.227 22.999 18.975 22.999C18.723 22.999 18.519 22.795 18.519 22.543V22.222C18.139 22.182 17.823 22.068 17.565 21.922C17.258 21.748 17.178 21.34 17.377 21.049L17.395 21.022C17.567 20.77 17.903 20.666 18.173 20.807C18.332 20.89 18.528 20.954 18.755 20.954C19.265 20.954 19.359 20.523 19.359 20.324C19.359 19.295 17.303 19.653 17.303 17.673C17.303 16.778 17.8 16.079 18.563 15.824V15.454C18.563 15.202 18.767 14.998 19.019 14.998C19.271 14.998 19.475 15.202 19.475 15.454V15.728C19.766 15.756 20.006 15.825 20.199 15.912C20.55 16.07 20.665 16.512 20.443 16.826C20.27 17.071 19.945 17.186 19.671 17.062C19.555 17.009 19.417 16.973 19.262 16.973C19.105 16.973 18.65 17.034 18.65 17.613C18.65 18.596 20.732 18.338 20.732 20.224C20.732 21.111 20.276 21.882 19.431 22.141Z" fill="white"/>
<path opacity="0.35" d="M20 18.783V17.098C20.173 17.07 20.337 16.978 20.443 16.828C20.665 16.514 20.55 16.072 20.199 15.914C20.14 15.887 20.068 15.867 19.999 15.844V5C19.999 3.343 18.656 2 16.999 2H7C5.343 2 4 3.343 4 5V19C4 20.657 5.343 22 7 22H17C17.206 22 17.407 21.979 17.602 21.939C17.854 22.076 18.155 22.185 18.519 22.223V22.544C18.519 22.796 18.723 23 18.975 23C19.227 23 19.431 22.796 19.431 22.544V22.142C20.276 21.883 20.731 21.112 20.731 20.227C20.732 19.474 20.398 19.068 20 18.783Z" fill="white"/>
<path d="M16 5H8C7.448 5 7 5.448 7 6V7C7 7.552 7.448 8 8 8H16C16.552 8 17 7.552 17 7V6C17 5.448 16.552 5 16 5Z" fill="white"/>
<path d="M12 12C12.5523 12 13 11.5523 13 11C13 10.4477 12.5523 10 12 10C11.4477 10 11 10.4477 11 11C11 11.5523 11.4477 12 12 12Z" fill="white"/>
<path d="M16 12C16.5523 12 17 11.5523 17 11C17 10.4477 16.5523 10 16 10C15.4477 10 15 10.4477 15 11C15 11.5523 15.4477 12 16 12Z" fill="white"/>
<path d="M8 12C8.55228 12 9 11.5523 9 11C9 10.4477 8.55228 10 8 10C7.44772 10 7 10.4477 7 11C7 11.5523 7.44772 12 8 12Z" fill="white"/>
<path d="M12 16C12.5523 16 13 15.5523 13 15C13 14.4477 12.5523 14 12 14C11.4477 14 11 14.4477 11 15C11 15.5523 11.4477 16 12 16Z" fill="white"/>
<path d="M12 20C12.5523 20 13 19.5523 13 19C13 18.4477 12.5523 18 12 18C11.4477 18 11 18.4477 11 19C11 19.5523 11.4477 20 12 20Z" fill="white"/>
<path d="M8 16C8.55228 16 9 15.5523 9 15C9 14.4477 8.55228 14 8 14C7.44772 14 7 14.4477 7 15C7 15.5523 7.44772 16 8 16Z" fill="white"/>
<path d="M8 20C8.55228 20 9 19.5523 9 19C9 18.4477 8.55228 18 8 18C7.44772 18 7 18.4477 7 19C7 19.5523 7.44772 20 8 20Z" fill="white"/>
</g>
<defs>
<clipPath id="clip0_279_662">
<rect width="24" height="24" fill="white"/>
</clipPath>
</defs>
</svg>
