<svg width="24" height="24" viewBox="0 0 24 24" fill="none" xmlns="http://www.w3.org/2000/svg">
<path opacity="0.35" d="M14.6918 14.6756L19.8276 9.53958C20.5789 8.78828 21 7.77088 21 6.70946V5.00079C21 3.89535 20.1047 3 18.9993 3H17.2907C16.2294 3 15.212 3.42117 14.4618 4.17246L9.32502 9.30849L5.88185 8.8163C4.79447 8.66123 3.6931 9.22446 3.20693 10.2979C2.76478 11.2753 3.05988 12.4347 3.81914 13.193L10.8075 20.1818C11.5658 20.9401 12.7252 21.2352 13.7025 20.793C14.7759 20.3068 15.3401 19.2054 15.184 18.118L14.6918 14.6756Z" fill="white"/>
<path d="M16.5 9C17.3284 9 18 8.32843 18 7.5C18 6.67157 17.3284 6 16.5 6C15.6716 6 15 6.67157 15 7.5C15 8.32843 15.6716 9 16.5 9Z" fill="white"/>
<path d="M12.75 12.75C13.5784 12.75 14.25 12.0784 14.25 11.25C14.25 10.4216 13.5784 9.75 12.75 9.75C11.9216 9.75 11.25 10.4216 11.25 11.25C11.25 12.0784 11.9216 12.75 12.75 12.75Z" fill="white"/>
<path d="M5.20751 14.25C5.07707 14.3467 4.94554 14.4424 4.82815 14.5598C4.04987 15.3381 3.41072 17.7012 3.03137 19.4208C2.82702 20.3469 3.65312 21.173 4.57923 20.9686C6.29775 20.5893 8.66193 19.9501 9.44021 19.1719C9.55869 19.0534 9.65435 18.9229 9.75 18.7925L5.20751 14.25Z" fill="white"/>
</svg>
