<svg width="18" height="18" viewBox="0 0 18 18" fill="none" xmlns="http://www.w3.org/2000/svg">
<path opacity="0.35" d="M11.0189 11.0067L14.8707 7.15469C15.4341 6.59121 15.75 5.82816 15.75 5.0321V3.75059C15.75 2.92152 15.0785 2.25 14.2495 2.25H12.9681C12.172 2.25 11.409 2.56587 10.8463 3.12935L6.99376 6.98137L4.41138 6.61222C3.59586 6.49593 2.76982 6.91834 2.4052 7.72341C2.07359 8.45645 2.29491 9.32604 2.86436 9.89477L8.10564 15.1363C8.67434 15.7051 9.54388 15.9264 10.2769 15.5948C11.0819 15.2301 11.5051 14.404 11.388 13.5885L11.0189 11.0067Z" fill="white"/>
<path d="M12.375 6.75C12.9963 6.75 13.5 6.24632 13.5 5.625C13.5 5.00368 12.9963 4.5 12.375 4.5C11.7537 4.5 11.25 5.00368 11.25 5.625C11.25 6.24632 11.7537 6.75 12.375 6.75Z" fill="white"/>
<path d="M9.5625 9.5625C10.1838 9.5625 10.6875 9.05882 10.6875 8.4375C10.6875 7.81618 10.1838 7.3125 9.5625 7.3125C8.94118 7.3125 8.4375 7.81618 8.4375 8.4375C8.4375 9.05882 8.94118 9.5625 9.5625 9.5625Z" fill="white"/>
<path d="M3.90563 10.6875C3.8078 10.7601 3.70916 10.8318 3.62111 10.9198C3.0374 11.5036 2.55804 13.2759 2.27353 14.5656C2.12026 15.2602 2.73984 15.8797 3.43442 15.7265C4.72331 15.442 6.49645 14.9626 7.08016 14.3789C7.16902 14.29 7.24076 14.1922 7.3125 14.0944L3.90563 10.6875Z" fill="white"/>
</svg>
