<svg width="24" height="24" viewBox="0 0 24 24" fill="none" xmlns="http://www.w3.org/2000/svg">
<path d="M15.5 13H8.5C6.567 13 5 14.567 5 16.5C5 18.433 6.567 20 8.5 20H15.5C17.433 20 19 18.433 19 16.5C19 14.567 17.433 13 15.5 13Z" fill="white"/>
<path d="M20.5 15H3.5C2.119 15 1 16.119 1 17.5C1 18.881 2.119 20 3.5 20H20.5C21.881 20 23 18.881 23 17.5C23 16.119 21.881 15 20.5 15Z" fill="white"/>
<path opacity="0.35" d="M12 11C14.2091 11 16 9.20914 16 7C16 4.79086 14.2091 3 12 3C9.79086 3 8 4.79086 8 7C8 9.20914 9.79086 11 12 11Z" fill="white"/>
<path opacity="0.35" d="M20 12C21.6569 12 23 10.6569 23 9C23 7.34315 21.6569 6 20 6C18.3431 6 17 7.34315 17 9C17 10.6569 18.3431 12 20 12Z" fill="white"/>
<path opacity="0.35" d="M4 12C5.65685 12 7 10.6569 7 9C7 7.34315 5.65685 6 4 6C2.34315 6 1 7.34315 1 9C1 10.6569 2.34315 12 4 12Z" fill="white"/>
</svg>
