<svg width="24" height="24" viewBox="0 0 24 24" fill="none" xmlns="http://www.w3.org/2000/svg">
<path opacity="0.35" d="M12 22C16.9706 22 21 17.9706 21 13C21 8.02944 16.9706 4 12 4C7.02944 4 3 8.02944 3 13C3 17.9706 7.02944 22 12 22Z" fill="white"/>
<path d="M10.586 14.4143C10.144 13.9723 8.39301 11.3163 6.95501 9.09228C6.47301 8.34728 7.34701 7.47328 8.09201 7.95428C10.316 9.39228 12.972 11.1443 13.414 11.5853C14.195 12.3663 14.195 13.6323 13.414 14.4133C12.633 15.1953 11.367 15.1953 10.586 14.4143Z" fill="white"/>
<path d="M13.5 1C13.114 1 10.886 1 10.5 1C9.672 1 9 1.672 9 2.5C9 3.328 9.672 4 10.5 4C10.886 4 13.114 4 13.5 4C14.328 4 15 3.328 15 2.5C15 1.672 14.328 1 13.5 1Z" fill="white"/>
<path d="M20.5611 5.14552C20.2881 4.87252 20.1271 4.71152 19.8541 4.43852C19.2681 3.85252 18.3181 3.85252 17.7331 4.43852C17.1481 5.02452 17.1471 5.97452 17.7331 6.55952C18.0061 6.83252 18.1671 6.99352 18.4401 7.26652C19.0261 7.85252 19.9761 7.85252 20.5611 7.26652C21.1461 6.68152 21.1461 5.73152 20.5611 5.14552Z" fill="white"/>
</svg>
